<?xml version="1.0" encoding="utf-8"?>
<!-- Generator: Adobe Illustrator 16.0.0, SVG Export Plug-In . SVG Version: 6.00 Build 0)  -->
<!DOCTYPE svg PUBLIC "-//W3C//DTD SVG 1.1//EN" "http://www.w3.org/Graphics/SVG/1.1/DTD/svg11.dtd">
<svg version="1.1" id="Layer_1" xmlns="http://www.w3.org/2000/svg" xmlns:xlink="http://www.w3.org/1999/xlink" x="0px" y="0px"
	 width="711px" height="419px" viewBox="0 0 711 419" style="enable-background:new 0 0 711 419;" xml:space="preserve">
<style type="text/css">
<![CDATA[
	.st0{opacity:0.15;fill:#FFFFFF;enable-background:new    ;}
	.st1{fill:#272A43;}
	.st2{fill:url(#SVGID_1_);}
	.st3{opacity:0.2;fill:#FFFFFF;enable-background:new    ;}
]]>
</style>
<g id="background">
	
		<linearGradient id="SVGID_1_" gradientUnits="userSpaceOnUse" x1="239.5" y1="-4.9995" x2="239.5" y2="414.0005" gradientTransform="matrix(1 0 0 -1 116 414)">
		<stop  offset="0" style="stop-color:#4FC3F7"/>
		<stop  offset="1" style="stop-color:#28397A"/>
	</linearGradient>
	<rect class="st2" width="711" height="419"/>
</g>
<g id="blue">
	<g>
		<path class="st1" d="M711,360.3C658.3,284.9,519.1,231,355.6,231C191.9,231,52.6,285,0,360.6V419h711V360.3z"/>
	</g>
</g>
<g id="clouds">
	<path class="st3" d="M170.4,244.1c0.1-0.9,0.1-1.7,0.1-2.6c0-17.5-15.5-31.7-34.7-31.7c-16.2,0-29.8,10.1-33.6,23.8
		c-3.3-2-7.3-3.1-11.5-3.1c-10,0-18.4,6.4-21,15.2c-5.6,3.1-9.3,8.6-9.3,14.9c0,9.8,9,17.7,20.1,17.7c1.6,0,3.1-0.2,4.6-0.5
		c3.6,4.5,9.6,7.5,16.4,7.5c7.3,0,13.6-3.4,17.1-8.5c4.4,2.8,9.8,4.5,15.6,4.5c5.1,0,9.8-1.3,13.9-3.5c2.9,1.3,6.1,2,9.5,2
		c12,0,21.7-8.8,21.7-19.7C179.2,253.5,175.8,247.7,170.4,244.1z"/>
	<path class="st3" d="M339.4,158.1c0.1-0.9,0.1-1.7,0.1-2.6c0-17.5-15.5-31.7-34.7-31.7c-16.2,0-29.8,10.1-33.6,23.8
		c-3.3-2-7.3-3.1-11.5-3.1c-10,0-18.4,6.4-21,15.2c-5.6,3.1-9.3,8.6-9.3,14.9c0,9.8,9,17.7,20.1,17.7c1.6,0,3.1-0.2,4.6-0.5
		c3.6,4.5,9.6,7.5,16.4,7.5c7.3,0,13.6-3.4,17.1-8.5c4.4,2.8,9.8,4.5,15.6,4.5c5.1,0,9.8-1.3,13.9-3.5c2.9,1.3,6.1,2,9.5,2
		c12,0,21.7-8.8,21.7-19.7C348.2,167.5,344.8,161.7,339.4,158.1z"/>
	<path class="st3" d="M626.7,94.5c0.1-0.6,0.1-1.2,0.1-1.9c0-12.6-11.2-22.8-25.1-22.8c-11.7,0-21.5,7.3-24.3,17.2
		c-2.4-1.4-5.2-2.2-8.3-2.2c-7.2,0-13.3,4.6-15.2,10.9c-4,2.3-6.7,6.2-6.7,10.8c0,7,6.5,12.8,14.5,12.8c1.2,0,2.3-0.1,3.3-0.4
		c2.6,3.3,6.9,5.4,11.8,5.4c5.2,0,9.8-2.5,12.4-6.1c3.1,2,7,3.2,11.2,3.2c3.7,0,7.1-0.9,10-2.5c2.1,0.9,4.4,1.4,6.9,1.4
		c8.7,0,15.7-6.4,15.7-14.2C633.1,101.3,630.6,97.1,626.7,94.5z"/>
	<path class="st3" d="M100.7,60.2c0-0.3,0-0.6,0-0.9c0-6.4-5.7-11.6-12.7-11.6c-5.9,0-10.9,3.7-12.3,8.7c-1.2-0.7-2.7-1.1-4.2-1.1
		c-3.7,0-6.7,2.3-7.7,5.6c-2,1.2-3.4,3.2-3.4,5.5c0,3.6,3.3,6.5,7.3,6.5c0.6,0,1.1-0.1,1.7-0.2c1.3,1.7,3.5,2.7,6,2.7
		c2.7,0,5-1.2,6.3-3.1c1.6,1,3.6,1.6,5.7,1.6c1.9,0,3.6-0.5,5.1-1.3c1.1,0.5,2.2,0.7,3.5,0.7c4.4,0,8-3.2,8-7.2
		C103.9,63.6,102.6,61.5,100.7,60.2z"/>
	<path class="st0" d="M636.3,231.1c0.1-1.3,0.2-2.7,0.2-4c0-27.2-24.2-49.3-54.1-49.3c-25.2,0-46.4,15.7-52.4,37
		c-5.2-3.1-11.3-4.8-17.9-4.8c-15.6,0-28.7,10-32.7,23.6c-8.7,4.9-14.5,13.4-14.5,23.2c0,15.2,14,27.5,31.2,27.5
		c2.5,0,4.9-0.3,7.2-0.8c5.7,7,15,11.7,25.5,11.7c11.3,0,21.2-5.3,26.7-13.2c6.8,4.4,15.2,7,24.3,7c7.9,0,15.3-2,21.6-5.4
		c4.5,2,9.5,3.1,14.8,3.1c18.7,0,33.9-13.8,33.9-30.8C650.1,245.8,644.7,236.7,636.3,231.1z"/>
</g>
</svg>
